<?xml version="1.0" encoding="UTF-8" standalone="no"?>
<!-- Generator: Adobe Illustrator 19.0.0, SVG Export Plug-In . SVG Version: 6.00 Build 0)  -->

<svg
   version="1.1"
   id="Capa_1"
   x="0px"
   y="0px"
   viewBox="0 0 60.364 60.364"
   style="enable-background:new 0 0 60.364 60.364;"
   xml:space="preserve"
   sodipodi:docname="plus.svg"
   inkscape:version="1.1 (c68e22c387, 2021-05-23)"
   xmlns:inkscape="http://www.inkscape.org/namespaces/inkscape"
   xmlns:sodipodi="http://sodipodi.sourceforge.net/DTD/sodipodi-0.dtd"
   xmlns="http://www.w3.org/2000/svg"
   xmlns:svg="http://www.w3.org/2000/svg"><defs
   id="defs39" /><sodipodi:namedview
   id="namedview37"
   pagecolor="#ffffff"
   bordercolor="#666666"
   borderopacity="1.0"
   inkscape:pageshadow="2"
   inkscape:pageopacity="0.0"
   inkscape:pagecheckerboard="0"
   showgrid="false"
   inkscape:zoom="8.6144062"
   inkscape:cx="30.123957"
   inkscape:cy="30.240042"
   inkscape:window-width="1366"
   inkscape:window-height="705"
   inkscape:window-x="-8"
   inkscape:window-y="-8"
   inkscape:window-maximized="1"
   inkscape:current-layer="Capa_1" />
<g
   id="g4"
   style="mix-blend-mode:normal;fill:#d2ff52;fill-opacity:1">
	<path
   d="M 54.454,23.18 35.845,23.178 35.844,5.91 C 35.845,2.646 33.198,0 29.934,0 26.671,0 24.025,2.646 24.025,5.91 V 23.179 L 5.91,23.178 C 2.646,23.179 0,25.825 0,29.088 c 0.002,3.264 2.646,5.909 5.91,5.909 h 18.115 v 19.457 c 0,3.267 2.646,5.91 5.91,5.91 3.264,0 5.909,-2.646 5.91,-5.908 V 34.997 h 18.611 c 3.262,0 5.908,-2.645 5.908,-5.907 0.003,-3.266 -2.646,-5.912 -5.91,-5.91 z"
   id="path2"
   style="fill:#d2ff52;fill-opacity:1" />
</g>
<g
   id="g6">
</g>
<g
   id="g8">
</g>
<g
   id="g10">
</g>
<g
   id="g12">
</g>
<g
   id="g14">
</g>
<g
   id="g16">
</g>
<g
   id="g18">
</g>
<g
   id="g20">
</g>
<g
   id="g22">
</g>
<g
   id="g24">
</g>
<g
   id="g26">
</g>
<g
   id="g28">
</g>
<g
   id="g30">
</g>
<g
   id="g32">
</g>
<g
   id="g34">
</g>
</svg>
